<?xml version="1.0" encoding="UTF-8"?>
<svg width="512" height="512" viewBox="0 0 512 512" xmlns="http://www.w3.org/2000/svg">
  <!-- Background Circle with Gradient -->
  <defs>
    <linearGradient id="bgGradient" x1="0%" y1="0%" x2="100%" y2="100%">
      <stop offset="0%" style="stop-color:#2C3E50"/>
      <stop offset="100%" style="stop-color:#3498DB"/>
    </linearGradient>
    
    <!-- Glowing Effect -->
    <filter id="glow">
      <feGaussianBlur stdDeviation="5" result="coloredBlur"/>
      <feMerge>
        <feMergeNode in="coloredBlur"/>
        <feMergeNode in="SourceGraphic"/>
      </feMerge>
    </filter>

    <!-- Gradient definition -->
    <linearGradient id="dinoGradient" x1="0%" y1="20%" x2="100%" y2="80%">
      <stop offset="0%" style="stop-color:#00E5FF"/>
      <stop offset="50%" style="stop-color:#2979FF"/>
      <stop offset="100%" style="stop-color:#E040FB"/>
    </linearGradient>
  </defs>

  <!-- Main Circle -->
  <circle cx="256" cy="256" r="240" fill="url(#bgGradient)"/>

  <!-- Circuit Pattern -->
  <path d="M 100 256 L 200 256 M 312 256 L 412 256 M 256 100 L 256 200 M 256 312 L 256 412"
        stroke="#4FC3F7" stroke-width="4" stroke-linecap="round" filter="url(#glow)"/>

  <!-- Brain/Circuit Design -->
  <path d="M 156 206 Q 256 106 356 206 Q 356 306 256 356 Q 156 306 156 206"
        fill="none" stroke="#E91E63" stroke-width="4" filter="url(#glow)"/>

  <!-- AI Text -->
  <text x="256" y="256" font-family="Arial, sans-serif" font-size="72" font-weight="bold" 
        fill="#FFFFFF" text-anchor="middle" dominant-baseline="middle" filter="url(#glow)">NYX</text>
  
  <!-- Decorative Elements -->
  <circle cx="256" cy="256" r="180" fill="none" stroke="#81D4FA" stroke-width="2" 
          stroke-dasharray="20,10" filter="url(#glow)">
    <animateTransform attributeName="transform" type="rotate" 
                      from="0 256 256" to="360 256 256" dur="20s" repeatCount="indefinite"/>
  </circle>

  <!-- Pulsing Effect -->
  <circle cx="256" cy="256" r="160" fill="none" stroke="#4FC3F7" stroke-width="4">
    <animate attributeName="r" values="160;170;160" dur="2s" repeatCount="indefinite"/>
    <animate attributeName="opacity" values="0.7;0.3;0.7" dur="2s" repeatCount="indefinite"/>
  </circle>

  <!-- Dinosaur head outline -->
  <path d="M 156 256
           C 156 190, 200 156, 256 156
           C 312 156, 356 190, 356 256
           L 336 276
           L 356 296
           L 326 316
           C 306 336, 276 346, 246 336
           L 216 356
           C 186 336, 156 306, 156 256
           Z"
        fill="url(#dinoGradient)"
        stroke="none"/>

  <!-- Eye -->
  <path d="M 226 226
           A 10 10 0 0 1 246 226
           A 10 10 0 0 1 226 226"
        fill="url(#dinoGradient)"
        stroke="none"/>

  <!-- Teeth -->
  <path d="M 286 246
           L 326 246
           L 326 276
           L 286 276
           Z"
        fill="url(#dinoGradient)"
        stroke="none"/>
</svg> 