<?xml version="1.0" encoding="UTF-8"?>
<svg version="1.1" xmlns="http://www.w3.org/2000/svg" width="64" height="64">
<path d="M0 0 C3.8823434 2.85842865 6.81001839 5.82582748 9.48828125 9.83203125 C9.92011719 10.45207031 10.35195313 11.07210938 10.796875 11.7109375 C14.96558776 19.08191405 14.67540439 28.65530454 13.48828125 36.83203125 C11.04361228 45.02256452 6.57174916 51.09652849 -0.51171875 55.83203125 C-1.13175781 56.26386719 -1.75179687 56.69570313 -2.390625 57.140625 C-7.58224001 60.076783 -12.80881046 60.20881159 -18.63671875 60.26953125 C-19.40097168 60.27976318 -20.16522461 60.28999512 -20.95263672 60.30053711 C-30.04265196 60.15976689 -37.10162479 56.10252244 -43.51171875 49.83203125 C-50.57735837 40.11124521 -51.89503758 30.60170525 -50.51171875 18.83203125 C-48.11036054 10.64437449 -43.57634197 4.55493579 -36.51171875 -0.16796875 C-35.58166016 -0.81572266 -35.58166016 -0.81572266 -34.6328125 -1.4765625 C-24.45608447 -7.2320897 -9.7207284 -5.7410111 0 0 Z " fill="#585856" transform="translate(50.51171875,4.16796875)"/>
<path d="M0 0 C-2.92936422 3.02090685 -5.9445442 5.92344194 -9.0625 8.75 C-9.71347656 9.34296875 -10.36445313 9.9359375 -11.03515625 10.546875 C-13.11409401 12.08437967 -14.52251812 12.41057975 -17 13 C-20.19572073 14.90693555 -22.74596255 17.03022554 -25 20 C-26.2130882 25.27289003 -25.40851974 29.27107709 -23 34 C-23 34.99 -23 35.98 -23 37 C-24.485 37.495 -24.485 37.495 -26 38 C-25.67 38.99 -25.34 39.98 -25 41 C-26.65 41.66 -28.3 42.32 -30 43 C-26.70303895 44.09898702 -25.59505097 43.87124444 -22.3125 43.0625 C-21.50425781 42.86785156 -20.69601563 42.67320313 -19.86328125 42.47265625 C-19.24839844 42.31667969 -18.63351563 42.16070312 -18 42 C-18 46 -18 50 -18 54 C-17.67 51.36 -17.34 48.72 -17 46 C-14.36 46 -11.72 46 -9 46 C-8 50.75 -8 50.75 -8 53 C-5.03 52.505 -5.03 52.505 -2 52 C-2.185625 51.21625 -2.37125 50.4325 -2.5625 49.625 C-3 47 -3 47 -2 45 C-2.66 44.34 -3.32 43.68 -4 43 C-2.63875 43.0928125 -2.63875 43.0928125 -1.25 43.1875 C2.28982642 42.98327924 3.44931155 42.35448165 6 40 C6.66 41.65 7.32 43.3 8 45 C9.11375 45.12375 10.2275 45.2475 11.375 45.375 C15 46 15 46 17 48 C17.3493141 50.72464997 17.41900494 52.33452156 15.9375 54.6875 C11.93722602 57.39736302 7.74637624 58 3 58 C3 57.67 3 57.34 3 57 C-0.3 56.67 -3.6 56.34 -7 56 C-7 56.99 -7 57.98 -7 59 C-7.66 59 -8.32 59 -9 59 C-9.33 58.34 -9.66 57.68 -10 57 C-11.15757813 57.08121094 -12.31515625 57.16242187 -13.5078125 57.24609375 C-25.42568058 57.84140097 -25.42568058 57.84140097 -29.32421875 55.7578125 C-30.93123383 53.92724939 -31.9449916 52.19211861 -33 50 C-33.40347656 49.39414062 -33.80695312 48.78828125 -34.22265625 48.1640625 C-38.50419471 40.82013551 -38.18955041 31.19344535 -37 23 C-34.23491106 13.73594288 -28.9385863 7.84802014 -20.98046875 2.69140625 C-14.29986874 -0.89058522 -7.39926844 -0.37890991 0 0 Z " fill="#9C9F9F" transform="translate(37,0)"/>
<path d="M0 0 C0.99 0.33 1.98 0.66 3 1 C3 1.66 3 2.32 3 3 C8.61 2.01 14.22 1.02 20 0 C20 0.66 20 1.32 20 2 C21.32 2 22.64 2 24 2 C24 2.66 24 3.32 24 4 C25.65 4 27.3 4 29 4 C29.22429688 4.63421875 29.44859375 5.2684375 29.6796875 5.921875 C30.83785757 8.22016157 30.83785757 8.22016157 33.3828125 8.828125 C34.28773437 8.96734375 35.19265625 9.1065625 36.125 9.25 C37.49011719 9.47429688 37.49011719 9.47429688 38.8828125 9.703125 C39.58148438 9.80109375 40.28015625 9.8990625 41 10 C38.96870382 20.51600235 38.96870382 20.51600235 34.68359375 23.74609375 C28.01744283 27.79236003 23.05524579 29.19980549 15.25 29.25 C14.46367187 29.270625 13.67734375 29.29125 12.8671875 29.3125 C7.57667129 29.34765293 3.72523891 28.62513273 -1 26 C-2.65 24.35 -4.3 22.7 -6 21 C-0.72 21 4.56 21 10 21 C10.33 21.99 10.66 22.98 11 24 C11.66 24 12.32 24 13 24 C13 23.01 13 22.02 13 21 C16.63 21 20.26 21 24 21 C24 21.66 24 22.32 24 23 C24.515625 22.71125 25.03125 22.4225 25.5625 22.125 C28.61892115 20.71434409 31.76538435 19.91545726 35 19 C36.28322547 17.9404123 36.28322547 17.9404123 36.125 15.5 C36.28322547 13.0595877 36.28322547 13.0595877 35 12 C32.67182036 11.63239269 30.3381615 11.29758419 28 11 C27.34 9.35 26.68 7.7 26 6 C24.35 6.99 22.7 7.98 21 9 C21.99 9.33 22.98 9.66 24 10 C24 10.33 24 10.66 24 11 C22.02 11.33 20.04 11.66 18 12 C18 13.32 18 14.64 18 16 C19.65 16.33 21.3 16.66 23 17 C23 17.33 23 17.66 23 18 C19.37 18 15.74 18 12 18 C11.67 18.66 11.34 19.32 11 20 C11 17.33333333 11 14.66666667 11 12 C8.36 11.67 5.72 11.34 3 11 C3 13.64 3 16.28 3 19 C2.01 19 1.02 19 0 19 C0.33 18.67 0.66 18.34 1 18 C1.23363881 16.15108054 1.41303635 14.29511969 1.5625 12.4375 C1.64628906 11.42558594 1.73007812 10.41367187 1.81640625 9.37109375 C1.87699219 8.58863281 1.93757813 7.80617188 2 7 C0.68 7 -0.64 7 -2 7 C-2.125 4.625 -2.125 4.625 -2 2 C-1.34 1.34 -0.68 0.68 0 0 Z " fill="#5C4038" transform="translate(17,35)"/>
<path d="M0 0 C7.43696804 4.24969602 12.4347903 10.77342498 15 19 C15.47146943 21.90791291 15.571011 24.74458617 15.5625 27.6875 C15.5622583 28.47189453 15.5620166 29.25628906 15.56176758 30.06445312 C15.35174122 37.26283036 13.2955036 43.1472457 9 49 C8.01 49.66 7.02 50.32 6 51 C6.60990891 47.44219804 7.5783681 44.3171411 9 41 C8.32453125 40.99742188 7.6490625 40.99484375 6.953125 40.9921875 C-0.33932368 40.67604088 -0.33932368 40.67604088 -3.6875 37.25 C-5.15982864 33.60423386 -5.29686433 32.63122013 -4 29 C-3.48824219 27.84113281 -2.97648437 26.68226562 -2.44921875 25.48828125 C-0.57476372 20.49958311 -0.69804244 15.82891091 -0.875 10.5625 C-0.91813906 8.772229 -0.95742142 6.98185942 -0.9921875 5.19140625 C-1.01651855 4.40967041 -1.04084961 3.62793457 -1.06591797 2.82250977 C-1 1 -1 1 0 0 Z " fill="#A69587" transform="translate(49,4)"/>
<path d="M0 0 C0 0.66 0 1.32 0 2 C1.918125 1.938125 1.918125 1.938125 3.875 1.875 C6.0546875 1.8046875 6.0546875 1.8046875 8 2 C10 4 10 4 10 8 C11.65 8 13.3 8 15 8 C15.66 12.29 16.32 16.58 17 21 C15.68 21 14.36 21 13 21 C13 20.34 13 19.68 13 19 C11.68 19 10.36 19 9 19 C9 18.34 9 17.68 9 17 C8.35933594 17.2165625 7.71867187 17.433125 7.05859375 17.65625 C1.8261918 19.34059996 -2.5065595 20.35826786 -8 20 C-11.19451949 9.38595137 -11.19451949 9.38595137 -10.5 4.4375 C-7.90610466 0.22242007 -4.83652395 -1.97043568 0 0 Z " fill="#906F61" transform="translate(28,18)"/>
<path d="M0 0 C0.66 0.33 1.32 0.66 2 1 C2.625 3.0625 2.625 3.0625 3 5 C4.670625 5.185625 4.670625 5.185625 6.375 5.375 C10 6 10 6 12 8 C12.3493141 10.72464997 12.41900494 12.33452156 10.9375 14.6875 C6.93722602 17.39736302 2.74637624 18 -2 18 C-2 17.67 -2 17.34 -2 17 C-5.3 16.67 -8.6 16.34 -12 16 C-12 16.99 -12 17.98 -12 19 C-12.66 19 -13.32 19 -14 19 C-14.33 18.34 -14.66 17.68 -15 17 C-16.20398438 17.02320312 -17.40796875 17.04640625 -18.6484375 17.0703125 C-20.22395215 17.08906863 -21.79947348 17.10726899 -23.375 17.125 C-24.1690625 17.14175781 -24.963125 17.15851562 -25.78125 17.17578125 C-27.85492015 17.19335473 -29.92883241 17.10335168 -32 17 C-32.66 16.34 -33.32 15.68 -34 15 C-34 13.68 -34 12.36 -34 11 C-33.34 11 -32.68 11 -32 11 C-31.01 12.485 -31.01 12.485 -30 14 C-26.41642759 14.25015873 -26.41642759 14.25015873 -23 14 C-22.67 11.36 -22.34 8.72 -22 6 C-19.36 6 -16.72 6 -14 6 C-13 10.75 -13 10.75 -13 13 C-11.02 12.67 -9.04 12.34 -7 12 C-7.185625 11.21625 -7.37125 10.4325 -7.5625 9.625 C-8 7 -8 7 -7 5 C-7.66 4.34 -8.32 3.68 -9 3 C-8.071875 3.061875 -7.14375 3.12375 -6.1875 3.1875 C-3.01604897 3.30894264 -3.01604897 3.30894264 -1.125 1.5 C-0.75375 1.005 -0.3825 0.51 0 0 Z " fill="#46332E" transform="translate(42,40)"/>
<path d="M0 0 C7.39529327 4.22588187 12.53957773 10.79859244 15 19 C15.22722533 23.01431416 15.17802127 26.98463137 15 31 C12.03 31.33 9.06 31.66 6 32 C4.375 30.1875 4.375 30.1875 3 27 C3.3316773 23.25151999 4.11081384 19.65269999 5 16 C4.01 15.67 3.02 15.34 2 15 C2.0928125 13.948125 2.0928125 13.948125 2.1875 12.875 C2.18093858 9.85593351 2.18093858 9.85593351 0.4375 6.9375 C-1 4 -1 4 -0.6875 1.625 C-0.460625 1.08875 -0.23375 0.5525 0 0 Z " fill="#E8D7C9" transform="translate(49,4)"/>
<path d="M0 0 C-4.42411271 5.13767927 -9.14174604 8.49054609 -16.05810547 9.21582031 C-18.41700138 9.35615266 -20.76207402 9.41712788 -23.125 9.4375 C-23.88901123 9.4475708 -24.65302246 9.4576416 -25.44018555 9.46801758 C-33.689718 9.34209097 -38.0555381 6.9444619 -44 1 C-38.72 1 -33.44 1 -28 1 C-27.67 1.99 -27.34 2.98 -27 4 C-26.34 4 -25.68 4 -25 4 C-25 3.01 -25 2.02 -25 1 C-21.37 1 -17.74 1 -14 1 C-14 1.66 -14 2.32 -14 3 C-13.2265625 2.566875 -13.2265625 2.566875 -12.4375 2.125 C-8.18646083 0.16298192 -4.5476506 -1.51588353 0 0 Z " fill="#0D0A09" transform="translate(55,55)"/>
<path d="M0 0 C-0.33 0.99 -0.66 1.98 -1 3 C-1.66 3 -2.32 3 -3 3 C-2.814375 3.680625 -2.62875 4.36125 -2.4375 5.0625 C-2 8 -2 8 -2.5 11.0625 C-3.18584426 16.46352354 -2.57572917 21.60586058 -2 27 C-3.32 26.67 -4.64 26.34 -6 26 C-6 27.98 -6 29.96 -6 32 C-7.99954746 32.04254356 -10.00041636 32.04080783 -12 32 C-14.230032 29.769968 -13.42654978 24.58310774 -13.46411133 21.51098633 C-13.31331861 13.66192005 -10.42389637 7.30986417 -5.55078125 1.17578125 C-4 0 -4 0 0 0 Z " fill="#CEC7BE" transform="translate(13,8)"/>
<path d="M0 0 C4 6 4 6 4 10 C3.01 10.33 2.02 10.66 1 11 C1.33 11.99 1.66 12.98 2 14 C0.35 14.66 -1.3 15.32 -3 16 C0.29696105 17.09898702 1.40494903 16.87124444 4.6875 16.0625 C5.49574219 15.86785156 6.30398437 15.67320313 7.13671875 15.47265625 C7.75160156 15.31667969 8.36648437 15.16070312 9 15 C9.05391993 16.79133978 9.09275571 18.58313899 9.125 20.375 C9.14820312 21.37273438 9.17140625 22.37046875 9.1953125 23.3984375 C9 26 9 26 7 28 C4.375 28.125 4.375 28.125 2 28 C1.34 26.68 0.68 25.36 0 24 C-0.66 24 -1.32 24 -2 24 C-2.33 24.99 -2.66 25.98 -3 27 C-3.9884096 25.44333045 -4.96535082 23.87937574 -5.9375 22.3125 C-6.48277344 21.44238281 -7.02804688 20.57226562 -7.58984375 19.67578125 C-8.97167172 17.05375311 -9.58480173 14.91689925 -10 12 C-7.69 12.33 -5.38 12.66 -3 13 C-3 11.02 -3 9.04 -3 7 C-1.68 7.33 -0.36 7.66 1 8 C0.67 5.36 0.34 2.72 0 0 Z " fill="#A5A29D" transform="translate(10,27)"/>
<path d="M0 0 C2.9765625 2.6640625 2.9765625 2.6640625 3.1875 5.6875 C3.125625 6.450625 3.06375 7.21375 3 8 C3.66 8.33 4.32 8.66 5 9 C4.85691406 10.22976562 4.85691406 10.22976562 4.7109375 11.484375 C4.54464844 13.10085937 4.54464844 13.10085937 4.375 14.75 C4.25898437 15.81734375 4.14296875 16.8846875 4.0234375 17.984375 C3.76942905 21.29577707 3.76942905 21.29577707 6 25 C8.97 24.67 11.94 24.34 15 24 C14.67 25.32 14.34 26.64 14 28 C11.03 27.67 8.06 27.34 5 27 C5 26.34 5 25.68 5 25 C1.65747276 24.92572162 -0.8035914 24.93453047 -4 26 C-3.50112565 23.25619106 -2.90045398 20.70758358 -2 18.0625 C-0.26092471 12.24827812 -0.31736668 6.02161525 0 0 Z " fill="#CEBBAC" transform="translate(49,11)"/>
<path d="M0 0 C0 1.32 0 2.64 0 4 C2.64 4.33 5.28 4.66 8 5 C8 5.33 8 5.66 8 6 C6.02 6.33 4.04 6.66 2 7 C2 8.32 2 9.64 2 11 C3.65 11.33 5.3 11.66 7 12 C7 12.33 7 12.66 7 13 C3.37 13 -0.26 13 -4 13 C-4.33 13.66 -4.66 14.32 -5 15 C-5 12.33333333 -5 9.66666667 -5 7 C-7.97 6.505 -7.97 6.505 -11 6 C-11 4.35 -11 2.7 -11 1 C-7.32589215 -0.17571451 -3.83070817 -0.07366746 0 0 Z " fill="#2F2927" transform="translate(33,40)"/>
<path d="M0 0 C2.97 0 5.94 0 9 0 C6.07063578 3.02090685 3.0554558 5.92344194 -0.0625 8.75 C-0.71347656 9.34296875 -1.36445313 9.9359375 -2.03515625 10.546875 C-4.11335024 12.0838296 -5.52822887 12.39642798 -8 13 C-11.53695836 15.32297451 -15.24869666 17.94484748 -16.73828125 22.01953125 C-17.06900999 24.12060613 -17.06900999 24.12060613 -17 27 C-18.76462683 23.91190305 -19 22.76687864 -19 19 C-18.34 19 -17.68 19 -17 19 C-16.92523438 18.2265625 -16.85046875 17.453125 -16.7734375 16.65625 C-16 14 -16 14 -14.0390625 12.59375 C-13.24242187 12.2328125 -12.44578125 11.871875 -11.625 11.5 C-7.67375666 9.5306303 -6.04946994 7.98508045 -4 4 C-3.01 4 -2.02 4 -1 4 C-0.67 2.68 -0.34 1.36 0 0 Z " fill="#828586" transform="translate(28,0)"/>
<path d="M0 0 C2.64 0 5.28 0 8 0 C8.70074844 3.153368 9 5.72724974 9 9 C9.2981424 10.34164079 9.62243192 11.67851173 10 13 C9.34 13 8.68 13 8 13 C7.67 12.34 7.34 11.68 7 11 C5.79601562 11.02320313 4.59203125 11.04640625 3.3515625 11.0703125 C1.77604785 11.08906863 0.20052652 11.10726899 -1.375 11.125 C-2.1690625 11.14175781 -2.963125 11.15851562 -3.78125 11.17578125 C-5.85492015 11.19335473 -7.92883241 11.10335168 -10 11 C-10.66 10.34 -11.32 9.68 -12 9 C-12 7.68 -12 6.36 -12 5 C-11.34 5 -10.68 5 -10 5 C-9.01 6.485 -9.01 6.485 -8 8 C-4.41642759 8.25015873 -4.41642759 8.25015873 -1 8 C-0.67 5.36 -0.34 2.72 0 0 Z " fill="#403B39" transform="translate(20,46)"/>
<path d="M0 0 C0.66 0.33 1.32 0.66 2 1 C2 2.32 2 3.64 2 5 C3.65 5 5.3 5 7 5 C7.66 9.29 8.32 13.58 9 18 C7.68 18 6.36 18 5 18 C5 17.34 5 16.68 5 16 C3.68 16 2.36 16 1 16 C1 15.34 1 14.68 1 14 C0.34 14 -0.32 14 -1 14 C-2.79583282 9.56323657 -3.26817809 6.64998633 -2 2 C-1.34 1.34 -0.68 0.68 0 0 Z " fill="#986B59" transform="translate(36,21)"/>
<path d="M0 0 C5.65059991 3.22891424 10.7579703 7.81632101 12.66796875 14.25 C12.77753906 14.8275 12.88710938 15.405 13 16 C11.02 16 9.04 16 7 16 C7.33 17.32 7.66 18.64 8 20 C7.34 20 6.68 20 6 20 C5.9071875 18.453125 5.9071875 18.453125 5.8125 16.875 C4.85444741 12.30582612 2.98326083 10.50533148 0 7 C-0.875 3.6875 -0.875 3.6875 -1 1 C-0.67 0.67 -0.34 0.34 0 0 Z " fill="#ECDFD3" transform="translate(49,4)"/>
<path d="M0 0 C0 0.66 0 1.32 0 2 C2.64 2 5.28 2 8 2 C8 2.33 8 2.66 8 3 C4.04 3 0.08 3 -4 3 C-4 3.66 -4 4.32 -4 5 C-2.68 5 -1.36 5 0 5 C0.33 6.98 0.66 8.96 1 11 C-0.65 11 -2.3 11 -4 11 C-4.33 10.01 -4.66 9.02 -5 8 C-5.99 8 -6.98 8 -8 8 C-8.66 8.66 -9.32 9.32 -10 10 C-10.75 8.375 -10.75 8.375 -11 6 C-8.10504458 0.72704549 -6.07743819 -1.88610151 0 0 Z " fill="#7A726C" transform="translate(28,18)"/>
<path d="M0 0 C6.0546875 -0.1953125 6.0546875 -0.1953125 8 0 C10 2 10 2 10.25 4.5 C10 7 10 7 8 9 C5.31160615 9.26991906 2.70858064 9.08737357 0 9 C0 6.03 0 3.06 0 0 Z " fill="#DCDAD8" transform="translate(44,46)"/>
<path d="M0 0 C0.99 0.33 1.98 0.66 3 1 C3.33 2.98 3.66 4.96 4 7 C2.68 7 1.36 7 0 7 C0 6.34 0 5.68 0 5 C-1.36125 6.0209375 -1.36125 6.0209375 -2.75 7.0625 C-6 9 -6 9 -8.3125 8.8125 C-10 8 -10 8 -11 7 C-11.04063832 5.33382885 -11.042721 3.66611905 -11 2 C-9.01432292 2.06510417 -7.02864583 2.13020833 -5.04296875 2.1953125 C-2.68640281 2.13254462 -2.68640281 2.13254462 0 0 Z " fill="#A57662" transform="translate(31,28)"/>
<path d="M0 0 C1.32 0 2.64 0 4 0 C3.67 0.99 3.34 1.98 3 3 C2.34 3 1.68 3 1 3 C1.185625 3.680625 1.37125 4.36125 1.5625 5.0625 C2.27296233 9.83274704 1.29081863 14.38993347 0 19 C-0.33 16.69 -0.66 14.38 -1 12 C-1.99 12 -2.98 12 -4 12 C-4 11.34 -4 10.68 -4 10 C-4.66 10 -5.32 10 -6 10 C-4.63330748 6.01381348 -2.94888215 3.03561398 0 0 Z " fill="#C0BCB8" transform="translate(9,8)"/>
<path d="M0 0 C0.99 0.33 1.98 0.66 3 1 C3.33 1.99 3.66 2.98 4 4 C5.65 4.33 7.3 4.66 9 5 C7.68 5.33 6.36 5.66 5 6 C5 7.65 5 9.3 5 11 C4.34 11 3.68 11 3 11 C3 13.64 3 16.28 3 19 C2.01 19 1.02 19 0 19 C0.33 18.67 0.66 18.34 1 18 C1.23363881 16.15108054 1.41303635 14.29511969 1.5625 12.4375 C1.64628906 11.42558594 1.73007812 10.41367187 1.81640625 9.37109375 C1.87699219 8.58863281 1.93757813 7.80617188 2 7 C0.68 7 -0.64 7 -2 7 C-2.125 4.625 -2.125 4.625 -2 2 C-1.34 1.34 -0.68 0.68 0 0 Z " fill="#564C47" transform="translate(17,35)"/>
<path d="M0 0 C1.134375 0.020625 2.26875 0.04125 3.4375 0.0625 C3.4375 0.7225 3.4375 1.3825 3.4375 2.0625 C1.4575 2.0625 -0.5225 2.0625 -2.5625 2.0625 C-2.5625 2.7225 -2.5625 3.3825 -2.5625 4.0625 C-0.9125 4.0625 0.7375 4.0625 2.4375 4.0625 C3 6 3 6 3.4375 8.0625 C2.4375 9.0625 2.4375 9.0625 -0.28515625 9.16015625 C-1.93837891 9.14275391 -1.93837891 9.14275391 -3.625 9.125 C-4.72972656 9.11597656 -5.83445313 9.10695313 -6.97265625 9.09765625 C-8.25462891 9.08025391 -8.25462891 9.08025391 -9.5625 9.0625 C-9.5625 8.4025 -9.5625 7.7425 -9.5625 7.0625 C-7.5825 6.7325 -5.6025 6.4025 -3.5625 6.0625 C-3.8409375 4.8559375 -3.8409375 4.8559375 -4.125 3.625 C-4.269375 2.779375 -4.41375 1.93375 -4.5625 1.0625 C-3.5625 0.0625 -3.5625 0.0625 0 0 Z " fill="#CFCDCA" transform="translate(38.5625,45.9375)"/>
<path d="M0 0 C3 3 3 3 3.1875 5.6875 C3.125625 6.450625 3.06375 7.21375 3 8 C3.66 8.33 4.32 8.66 5 9 C4.67 9.99 4.34 10.98 4 12 C3.34 12 2.68 12 2 12 C2.33 14.31 2.66 16.62 3 19 C1.68 18.67 0.36 18.34 -1 18 C-1.33 18.99 -1.66 19.98 -2 21 C-1.01 10.605 -1.01 10.605 0 0 Z " fill="#B5A99A" transform="translate(49,11)"/>
<path d="M0 0 C2.64 0 5.28 0 8 0 C8.70074844 3.153368 9 5.72724974 9 9 C9.2981424 10.34164079 9.62243192 11.67851173 10 13 C9.34 13 8.68 13 8 13 C6.68 10.03 5.36 7.06 4 4 C5.32 4 6.64 4 8 4 C8 3.34 8 2.68 8 2 C6.02 2 4.04 2 2 2 C2 4.31 2 6.62 2 9 C1.34 9 0.68 9 0 9 C0 6.03 0 3.06 0 0 Z " fill="#CFCDCA" transform="translate(20,46)"/>
<path d="M0 0 C4 6 4 6 4 10 C3.01 10.33 2.02 10.66 1 11 C1.33 11.99 1.66 12.98 2 14 C-0.31 14.66 -2.62 15.32 -5 16 C-5 15.01 -5 14.02 -5 13 C-4.34 13 -3.68 13 -3 13 C-3 11.02 -3 9.04 -3 7 C-1.68 7.33 -0.36 7.66 1 8 C0.67 5.36 0.34 2.72 0 0 Z " fill="#9C978F" transform="translate(10,27)"/>
<path d="M0 0 C0.66 0 1.32 0 2 0 C2.05391993 1.79133978 2.09275571 3.58313899 2.125 5.375 C2.14820313 6.37273438 2.17140625 7.37046875 2.1953125 8.3984375 C2 11 2 11 0 13 C-2.5 13.25 -2.5 13.25 -5 13 C-7 11 -7 11 -7.125 7.375 C-7.08375 6.26125 -7.0425 5.1475 -7 4 C-6.34 4 -5.68 4 -5 4 C-5 6.31 -5 8.62 -5 11 C-3.68 10.67 -2.36 10.34 -1 10 C-0.67 6.7 -0.34 3.4 0 0 Z " fill="#D8D7D3" transform="translate(17,42)"/>
<path d="M0 0 C4.29 0.99 8.58 1.98 13 3 C14 7 14 7 13.00390625 8.921875 C12.52824219 9.52515625 12.05257812 10.1284375 11.5625 10.75 C11.08941406 11.36359375 10.61632813 11.9771875 10.12890625 12.609375 C9.75636719 13.06828125 9.38382813 13.5271875 9 14 C7.60804085 9.82412255 9.17676781 7.86525224 11 4 C7.7 3.67 4.4 3.34 1 3 C0.67 2.01 0.34 1.02 0 0 Z " fill="#7D6D65" transform="translate(47,41)"/>
<path d="M0 0 C1.74991334 -0.02715383 3.49994945 -0.04646551 5.25 -0.0625 C6.71179687 -0.07990234 6.71179687 -0.07990234 8.203125 -0.09765625 C10.65758678 -0.01195577 12.66168914 0.29293934 15 1 C15 2.65 15 4.3 15 6 C12.68456386 5.38454214 10.37307804 4.75821964 8.0625 4.125 C7.40314453 3.95097656 6.74378906 3.77695312 6.06445312 3.59765625 C4.358497 3.12523763 2.67660739 2.56784972 1 2 C0.67 1.34 0.34 0.68 0 0 Z " fill="#928174" transform="translate(47,40)"/>
<path d="M0 0 C-3.42388092 3.82669043 -6.00724943 5.72278474 -11 7 C-11.625 5.125 -11.625 5.125 -12 3 C-8.62803192 -0.37196808 -4.5120049 -1.50400163 0 0 Z " fill="#130F0E" transform="translate(55,55)"/>
<path d="M0 0 C0 0.66 0 1.32 0 2 C1.32 2.33 2.64 2.66 4 3 C-0.24733832 3.98142381 -4.47324533 4.30920379 -8.8125 4.5625 C-9.50537109 4.60568359 -10.19824219 4.64886719 -10.91210938 4.69335938 C-12.60788686 4.79861453 -14.30392052 4.89972863 -16 5 C-16.33 4.34 -16.66 3.68 -17 3 C-14.54212344 2.49766027 -12.08374976 1.99803143 -9.625 1.5 C-8.57699219 1.28537109 -8.57699219 1.28537109 -7.5078125 1.06640625 C-2.2265625 0 -2.2265625 0 0 0 Z " fill="#745549" transform="translate(37,35)"/>
<path d="M0 0 C0.99 0 1.98 0 3 0 C3 0.66 3 1.32 3 2 C3.99 2.33 4.98 2.66 6 3 C5.01 4.485 5.01 4.485 4 6 C3.92094936 8.33199388 3.91201231 10.66832622 4 13 C3.01 13 2.02 13 1 13 C1 9.7 1 6.4 1 3 C0.34 2.67 -0.32 2.34 -1 2 C-0.67 1.34 -0.34 0.68 0 0 Z " fill="#EBE0D8" transform="translate(2,18)"/>
<path d="M0 0 C0 0.99 0 1.98 0 3 C-0.515625 3.12375 -1.03125 3.2475 -1.5625 3.375 C-4.72702351 4.18641628 -7.86124985 5.0945913 -11 6 C-11 4.35 -11 2.7 -11 1 C-7.32589215 -0.17571451 -3.83070817 -0.07366746 0 0 Z " fill="#3C3532" transform="translate(33,40)"/>
<path d="M0 0 C2.97 0.33 5.94 0.66 9 1 C8.39009109 4.55780196 7.4216319 7.6828589 6 11 C4 9 4 9 3.875 6.375 C3.91625 5.59125 3.9575 4.8075 4 4 C2.68 3.34 1.36 2.68 0 2 C0 1.34 0 0.68 0 0 Z " fill="#65574F" transform="translate(49,44)"/>
<path d="M0 0 C0.33 1.32 0.66 2.64 1 4 C-0.32 3.67 -1.64 3.34 -3 3 C-3 4.98 -3 6.96 -3 9 C-4.98 9 -6.96 9 -9 9 C-9 8.34 -9 7.68 -9 7 C-8.34 7 -7.68 7 -7 7 C-7 5.68 -7 4.36 -7 3 C-3.535 2.505 -3.535 2.505 0 2 C0 1.34 0 0.68 0 0 Z " fill="#BBB5AB" transform="translate(10,31)"/>
<path d="M0 0 C1.134375 0.020625 2.26875 0.04125 3.4375 0.0625 C3.7675 2.0425 4.0975 4.0225 4.4375 6.0625 C2.7875 6.0625 1.1375 6.0625 -0.5625 6.0625 C-0.8925 5.0725 -1.2225 4.0825 -1.5625 3.0625 C-2.5525 2.4025 -3.5425 1.7425 -4.5625 1.0625 C-3.5625 0.0625 -3.5625 0.0625 0 0 Z " fill="#726159" transform="translate(24.5625,22.9375)"/>
<path d="M0 0 C-0.33 1.32 -0.66 2.64 -1 4 C-1.99 4 -2.98 4 -4 4 C-4.33 4.99 -4.66 5.98 -5 7 C-6.65 5.35 -8.3 3.7 -10 2 C-6.49223216 0.39644899 -3.85645121 -0.22036864 0 0 Z " fill="#989A9A" transform="translate(28,0)"/>
<path d="M0 0 C7.26 0 14.52 0 22 0 C22 0.33 22 0.66 22 1 C18.12315913 2.19287411 15.08378077 3 11 3 C11 2.67 11 2.34 11 2 C7.37 2 3.74 2 0 2 C0 1.34 0 0.68 0 0 Z " fill="#3B3532" transform="translate(29,55)"/>
<path d="M0 0 C0.99 0.33 1.98 0.66 3 1 C3.66 0.67 4.32 0.34 5 0 C5.33 0.99 5.66 1.98 6 3 C7.65 3.33 9.3 3.66 11 4 C11 4.33 11 4.66 11 5 C7.37 5 3.74 5 0 5 C-0.33 5.66 -0.66 6.32 -1 7 C-1 3 -1 3 0 0 Z " fill="#433834" transform="translate(29,48)"/>
<path d="M0 0 C0.66 0.33 1.32 0.66 2 1 C2 2.32 2 3.64 2 5 C2.66 5 3.32 5 4 5 C4 5.99 4 6.98 4 8 C1.69 8 -0.62 8 -3 8 C-2.25 2.25 -2.25 2.25 0 0 Z " fill="#7F5F52" transform="translate(36,21)"/>
<path d="M0 0 C2.97 0.495 2.97 0.495 6 1 C6.33 2.32 6.66 3.64 7 5 C5.35 6.32 3.7 7.64 2 9 C1.34 7.68 0.68 6.36 0 5 C0.99 4.67 1.98 4.34 3 4 C3 3.01 3 2.02 3 1 C2.01 0.67 1.02 0.34 0 0 Z " fill="#594F49" transform="translate(36,18)"/>
<path d="M0 0 C1.32 0 2.64 0 4 0 C4.33 1.98 4.66 3.96 5 6 C3.35 6.33 1.7 6.66 0 7 C0 4.69 0 2.38 0 0 Z " fill="#6E635D" transform="translate(12,46)"/>
<path d="M0 0 C1.485 0.99 1.485 0.99 3 2 C3.1875 5.625 3.1875 5.625 3 9 C3.66 9.33 4.32 9.66 5 10 C4.03114628 11.68496298 3.03013277 13.35178756 2 15 C1.67 15 1.34 15 1 15 C1.33 11.7 1.66 8.4 2 5 C1.01 4.67 0.02 4.34 -1 4 C-0.67 2.68 -0.34 1.36 0 0 Z " fill="#DECEC0" transform="translate(52,15)"/>
<path d="M0 0 C1.875 0.25 1.875 0.25 4 1 C5.25 3.0625 5.25 3.0625 6 5 C3.4345406 7.5654594 1.52313332 7.54046087 -2 8 C-0.68 6.02 0.64 4.04 2 2 C1.34 1.34 0.68 0.68 0 0 Z " fill="#A6A8A8" transform="translate(17,3)"/>
<path d="M0 0 C1.65 0 3.3 0 5 0 C5.33 1.65 5.66 3.3 6 5 C4.02 5 2.04 5 0 5 C0 3.35 0 1.7 0 0 Z " fill="#432B27" transform="translate(46,48)"/>
<path d="M0 0 C0.33 0 0.66 0 1 0 C1 2.97 1 5.94 1 9 C0.01 8.67 -0.98 8.34 -2 8 C-2 7.01 -2 6.02 -2 5 C-3.65 4.67 -5.3 4.34 -7 4 C-7 3.34 -7 2.68 -7 2 C-5.02 2 -3.04 2 -1 2 C-0.67 1.34 -0.34 0.68 0 0 Z " fill="#63564F" transform="translate(43,46)"/>
<path d="M0 0 C2.92879371 0.62759865 5.36095629 1.58622659 8 3 C7.34 3 6.68 3 6 3 C5.67 3.99 5.34 4.98 5 6 C3.35 5.67 1.7 5.34 0 5 C0 3.35 0 1.7 0 0 Z " fill="#AA7E6B" transform="translate(20,30)"/>
<path d="M0 0 C0.66 0.33 1.32 0.66 2 1 C0.02 2.32 -1.96 3.64 -4 5 C-4 4.01 -4 3.02 -4 2 C-2.125 0.9375 -2.125 0.9375 0 0 Z M-6 5 C-5.34 5.33 -4.68 5.66 -4 6 C-4.54723683 9.37462715 -5.0549 11.08235 -7 14 C-7.33 11.36 -7.66 8.72 -8 6 C-7.34 5.67 -6.68 5.34 -6 5 Z " fill="#777A7B" transform="translate(17,13)"/>
<path d="M0 0 C0 0.66 0 1.32 0 2 C1.32 2.33 2.64 2.66 4 3 C-1.22512279 4.46670113 -5.5814234 5.22577402 -11 5 C-11.33 4.01 -11.66 3.02 -12 2 C-11.0925 2.226875 -10.185 2.45375 -9.25 2.6875 C-6.01560852 3.33556459 -6.01560852 3.33556459 -3.75 1.5625 C-2 0 -2 0 0 0 Z " fill="#976B59" transform="translate(31,33)"/>
<path d="M0 0 C0.33 0 0.66 0 1 0 C1 2.97 1 5.94 1 9 C1.66 9 2.32 9 3 9 C3 10.32 3 11.64 3 13 C1.68 12.67 0.36 12.34 -1 12 C-1.33 12.99 -1.66 13.98 -2 15 C-1.855625 14.01 -1.71125 13.02 -1.5625 12 C-0.99074821 8.00590535 -0.49180166 4.00467063 0 0 Z " fill="#AB9587" transform="translate(49,17)"/>
<path d="M0 0 C2.0625 0.4375 2.0625 0.4375 4 1 C4 2.65 4 4.3 4 6 C2.68 5.67 1.36 5.34 0 5 C0 6.65 0 8.3 0 10 C-0.33 10 -0.66 10 -1 10 C-1.02689216 8.52093108 -1.04634621 7.04172517 -1.0625 5.5625 C-1.07410156 4.73878906 -1.08570312 3.91507813 -1.09765625 3.06640625 C-1 1 -1 1 0 0 Z " fill="#8D776A" transform="translate(20,25)"/>
<path d="M0 0 C1.32 0 2.64 0 4 0 C4.33 1.98 4.66 3.96 5 6 C3.35 6.66 1.7 7.32 0 8 C-0.99 7.01 -1.98 6.02 -3 5 C-1.35 4.34 0.3 3.68 2 3 C2 2.34 2 1.68 2 1 C1.34 0.67 0.68 0.34 0 0 Z " fill="#76716B" transform="translate(9,37)"/>
<path d="M0 0 C1.98 0 3.96 0 6 0 C6 0.66 6 1.32 6 2 C5.01 2.33 4.02 2.66 3 3 C3 3.66 3 4.32 3 5 C2.34 5 1.68 5 1 5 C0.67 5.66 0.34 6.32 0 7 C0 4.69 0 2.38 0 0 Z " fill="#807973" transform="translate(22,48)"/>
<path d="M0 0 C3.3 0 6.6 0 10 0 C9.67 1.98 9.34 3.96 9 6 C8.67 5.01 8.34 4.02 8 3 C7.01 3 6.02 3 5 3 C5 2.34 5 1.68 5 1 C3.35 1 1.7 1 0 1 C0 0.67 0 0.34 0 0 Z " fill="#A89D94" transform="translate(54,38)"/>
<path d="M0 0 C0.66 0 1.32 0 2 0 C2 1.98 2 3.96 2 6 C0.68 6.33 -0.64 6.66 -2 7 C-2.125 4.625 -2.125 4.625 -2 2 C-1.34 1.34 -0.68 0.68 0 0 Z " fill="#454341" transform="translate(17,35)"/>
<path d="M0 0 C0.625 2.0625 0.625 2.0625 1 4 C-0.32 4 -1.64 4 -3 4 C-3 3.34 -3 2.68 -3 2 C-4.32 2 -5.64 2 -7 2 C-7 1.34 -7 0.68 -7 0 C-2.25 -1.125 -2.25 -1.125 0 0 Z " fill="#816255" transform="translate(44,35)"/>
<path d="M0 0 C0.99 0.33 1.98 0.66 3 1 C3 3.31 3 5.62 3 8 C2.67 8 2.34 8 2 8 C2 6.02 2 4.04 2 2 C1.34 2 0.68 2 0 2 C0 1.34 0 0.68 0 0 Z M-5 1 C-2.525 1.495 -2.525 1.495 0 2 C-0.99 2.99 -1.98 3.98 -3 5 C-3.66 3.68 -4.32 2.36 -5 1 Z " fill="#66635F" transform="translate(16,27)"/>
<path d="M0 0 C0.33 0.99 0.66 1.98 1 3 C0.01 3.33 -0.98 3.66 -2 4 C-2.33 5.65 -2.66 7.3 -3 9 C-3.66 8.67 -4.32 8.34 -5 8 C-4.74438677 5.6568787 -4.40729228 3.32156597 -4 1 C-2 0 -2 0 0 0 Z " fill="#919597" transform="translate(14,10)"/>
<path d="M0 0 C1.134375 0.020625 2.26875 0.04125 3.4375 0.0625 C3.4375 0.7225 3.4375 1.3825 3.4375 2.0625 C1.4575 2.0625 -0.5225 2.0625 -2.5625 2.0625 C-2.8925 3.0525 -3.2225 4.0425 -3.5625 5.0625 C-4.125 3.125 -4.125 3.125 -4.5625 1.0625 C-3.5625 0.0625 -3.5625 0.0625 0 0 Z " fill="#C6C5C3" transform="translate(38.5625,45.9375)"/>
<path d="M0 0 C1.65 0 3.3 0 5 0 C5 1.98 5 3.96 5 6 C4.67 5.01 4.34 4.02 4 3 C2.35 3 0.7 3 -1 3 C-0.67 2.01 -0.34 1.02 0 0 Z " fill="#948E87" transform="translate(12,43)"/>
<path d="M0 0 C2.31 0.33 4.62 0.66 7 1 C7 2.65 7 4.3 7 6 C4.5 4.625 4.5 4.625 2 3 C2 2.34 2 1.68 2 1 C1.34 0.67 0.68 0.34 0 0 Z " fill="#97877B" transform="translate(55,40)"/>
<path d="M0 0 C-0.33 1.32 -0.66 2.64 -1 4 C-3.97 3.67 -6.94 3.34 -10 3 C-10 2.67 -10 2.34 -10 2 C-6.38026598 0.68373308 -3.90432869 0 0 0 Z " fill="#BDB0A6" transform="translate(64,35)"/>
<path d="M0 0 C0.99 0.33 1.98 0.66 3 1 C0.69 3.31 -1.62 5.62 -4 8 C-4 4.87099787 -3.57548683 3.62581138 -2 1 C-1.34 0.67 -0.68 0.34 0 0 Z " fill="#6F7373" transform="translate(27,5)"/>
<path d="M0 0 C0.66 0.33 1.32 0.66 2 1 C0.75023244 4.65316671 0.32901247 5.78065836 -3 8 C-2.45276317 4.62537285 -1.9451 2.91765 0 0 Z " fill="#E7E3DD" transform="translate(58,47)"/>
<path d="M0 0 C0.33 0.66 0.66 1.32 1 2 C2.98 2 4.96 2 7 2 C6.67 2.66 6.34 3.32 6 4 C3.67843403 4.40729228 1.3431213 4.74438677 -1 5 C-0.67 3.35 -0.34 1.7 0 0 Z " fill="#B5AB9F" transform="translate(46,32)"/>
<path d="M0 0 C0.66 0.33 1.32 0.66 2 1 C2 1.66 2 2.32 2 3 C4.64 3 7.28 3 10 3 C10 3.33 10 3.66 10 4 C6.04 4 2.08 4 -2 4 C-1.34 2.68 -0.68 1.36 0 0 Z " fill="#7D6B62" transform="translate(26,17)"/>
<path d="M0 0 C1.27875 -0.061875 2.5575 -0.12375 3.875 -0.1875 C4.95394531 -0.23970703 4.95394531 -0.23970703 6.0546875 -0.29296875 C6.69664063 -0.19628906 7.33859375 -0.09960938 8 0 C8.66 0.99 9.32 1.98 10 3 C9.01 4.485 9.01 4.485 8 6 C7.690625 5.0409375 7.690625 5.0409375 7.375 4.0625 C6.10461791 1.65074923 6.10461791 1.65074923 2.875 1.25 C1.92625 1.1675 0.9775 1.085 0 1 C0 0.67 0 0.34 0 0 Z " fill="#BFBBB6" transform="translate(44,46)"/>
<path d="M0 0 C1.32 0 2.64 0 4 0 C4 1.32 4 2.64 4 4 C2.35 3.67 0.7 3.34 -1 3 C-0.67 2.01 -0.34 1.02 0 0 Z " fill="#CBC0B3" transform="translate(59,21)"/>
</svg>
