<?xml version="1.0" encoding="UTF-8"?>
<svg width="512" height="512" viewBox="0 0 512 512" xmlns="http://www.w3.org/2000/svg">
  <defs>
    <linearGradient id="dinoGradient" x1="0%" y1="20%" x2="100%" y2="80%">
      <stop offset="0%" style="stop-color:#00E5FF"/>
      <stop offset="50%" style="stop-color:#2979FF"/>
      <stop offset="100%" style="stop-color:#E040FB"/>
    </linearGradient>
  </defs>

  <!-- Dinosaur head outline -->
  <path d="M 156 256
           C 156 190, 200 156, 256 156
           C 312 156, 356 190, 356 256
           L 336 276
           L 356 296
           L 326 316
           C 306 336, 276 346, 246 336
           L 216 356
           C 186 336, 156 306, 156 256
           Z"
        fill="url(#dinoGradient)"
        stroke="none"/>

  <!-- Eye -->
  <path d="M 226 226
           A 10 10 0 0 1 246 226
           A 10 10 0 0 1 226 226"
        fill="url(#dinoGradient)"
        stroke="none"/>

  <!-- Teeth -->
  <path d="M 286 246
           L 326 246
           L 326 276
           L 286 276
           Z"
        fill="url(#dinoGradient)"
        stroke="none"/>
</svg>